<?xml version="1.0" encoding="UTF-8" ?>
<!DOCTYPE svg PUBLIC "-//W3C//DTD SVG 1.1//EN" "http://www.w3.org/Graphics/SVG/1.1/DTD/svg11.dtd">
<svg width="556pt" height="537pt" viewBox="0 0 556 537" version="1.1" xmlns="http://www.w3.org/2000/svg">
<g id="#ffffffff">
<path fill="#ffffff" opacity="1.00" d=" M 228.36 226.32 C 232.15 219.51 239.19 214.48 247.01 213.68 C 252.22 214.05 257.77 215.57 261.44 219.51 C 270.40 228.55 279.68 237.25 288.87 246.04 C 286.72 248.54 284.44 250.94 282.02 253.19 C 272.90 244.24 263.60 235.49 254.46 226.57 C 252.02 224.06 248.59 222.41 245.04 222.70 C 240.63 223.79 236.38 226.67 235.00 231.19 C 233.22 235.00 235.17 239.24 237.96 241.98 C 249.34 253.24 260.41 264.83 272.06 275.81 C 282.71 284.81 291.67 295.59 302.19 304.74 C 324.63 323.92 343.93 346.42 365.92 366.07 C 368.60 368.77 370.53 372.13 373.39 374.67 C 392.44 392.57 411.01 410.98 429.96 428.98 C 428.19 437.21 425.72 445.93 428.70 454.20 C 429.32 455.30 430.08 456.31 430.80 457.37 C 435.41 465.45 443.44 471.85 452.97 472.47 C 474.36 474.79 494.39 454.18 492.06 432.95 C 490.93 423.39 484.91 413.98 475.64 410.57 C 469.82 407.95 463.16 407.87 457.00 409.18 C 453.69 409.84 450.66 411.82 447.22 411.71 C 443.89 409.85 441.25 407.03 438.50 404.44 C 433.07 399.06 427.53 393.80 422.28 388.26 C 421.97 387.95 421.36 387.32 421.06 387.01 C 423.02 385.30 424.84 383.44 426.86 381.80 C 427.63 380.97 429.07 381.22 429.78 382.03 C 436.27 388.16 442.31 394.81 449.04 400.65 C 453.15 400.83 457.00 399.07 461.05 398.64 C 473.68 397.24 487.60 402.03 494.88 412.85 C 500.13 419.69 502.18 428.41 502.24 436.91 C 501.55 445.00 499.08 452.92 494.82 459.84 C 490.04 466.36 484.60 472.77 477.22 476.42 C 468.13 481.54 457.30 483.73 446.99 481.97 C 436.46 479.38 426.31 472.66 421.97 462.42 C 417.71 453.60 417.22 443.17 420.03 433.86 C 420.46 432.40 420.65 430.66 419.22 429.70 C 381.20 392.78 342.92 356.14 304.92 319.21 C 293.32 308.45 282.33 297.06 270.72 286.32 C 259.52 275.51 248.48 264.53 237.13 253.89 C 233.27 249.91 228.16 246.51 226.76 240.81 C 225.85 235.98 226.16 230.78 228.36 226.32 Z" />
<path fill="#ffffff" opacity="1.00" d=" M 286.49 257.42 C 288.59 255.26 290.45 252.78 293.00 251.09 C 294.24 251.19 295.10 252.21 295.99 252.98 C 298.91 255.86 301.79 258.80 304.92 261.47 C 303.58 264.61 301.08 267.02 298.46 269.11 C 294.52 265.16 290.33 261.47 286.49 257.42 Z" />
<path fill="#ffffff" opacity="1.00" d=" M 302.88 273.11 C 305.12 270.71 307.44 268.39 309.87 266.18 C 313.35 269.67 316.95 273.04 320.43 276.53 C 321.16 277.34 322.32 278.47 321.60 279.65 C 320.17 281.90 318.11 283.65 316.32 285.59 C 311.27 282.08 307.27 277.37 302.88 273.11 Z" />
<path fill="#ffffff" opacity="1.00" d=" M 320.44 289.53 C 322.65 287.48 324.55 285.07 327.00 283.29 C 331.55 286.98 335.38 291.50 339.90 295.26 C 337.96 297.79 335.82 300.16 333.58 302.42 C 328.89 298.45 324.17 294.44 320.44 289.53 Z" />
<path fill="#ffffff" opacity="1.00" d=" M 337.61 306.59 C 339.73 304.27 341.94 302.03 344.22 299.87 C 348.37 303.61 352.83 307.19 356.11 311.76 C 353.96 313.94 351.85 316.15 349.71 318.34 C 345.40 314.71 341.43 310.72 337.61 306.59 Z" />
<path fill="#ffffff" opacity="1.00" d=" M 360.54 315.50 C 363.98 318.66 367.33 321.93 370.77 325.11 C 371.86 326.18 373.67 327.74 372.38 329.38 C 370.76 331.48 368.73 333.24 366.88 335.14 C 362.66 330.70 357.46 327.09 354.32 321.72 C 356.45 319.70 358.52 317.62 360.54 315.50 Z" />
<path fill="#ffffff" opacity="1.00" d=" M 371.53 338.91 C 373.80 337.10 375.41 333.00 378.72 333.31 C 382.89 336.32 386.27 340.36 389.92 343.99 C 387.85 346.24 385.75 348.48 383.62 350.69 C 379.24 347.16 374.78 343.57 371.53 338.91 Z" />
<path fill="#ffffff" opacity="1.00" d=" M 388.73 353.14 C 390.98 351.93 392.63 348.59 395.52 349.35 C 399.73 352.58 403.21 356.67 407.14 360.23 C 405.37 362.98 403.22 365.43 401.04 367.85 L 400.52 367.37 C 397.61 364.73 394.81 361.97 392.14 359.08 C 390.92 357.62 389.77 356.12 388.60 354.63 C 388.64 354.26 388.70 353.51 388.73 353.14 Z" />
<path fill="#ffffff" opacity="1.00" d=" M 411.45 365.49 C 412.55 365.07 413.26 366.41 414.04 366.95 C 416.87 369.82 419.73 372.65 422.72 375.36 C 422.71 375.91 422.69 377.01 422.68 377.57 C 421.01 379.71 419.21 381.74 417.32 383.69 L 416.31 382.67 C 412.61 378.95 408.59 375.58 404.90 371.86 C 406.87 369.54 408.98 367.29 411.45 365.49 Z" />
<path fill="#ffffff" opacity="1.00" d=" M 477.31 429.81 C 478.15 428.98 478.99 428.15 479.84 427.32 C 481.19 427.38 482.55 427.51 483.91 427.68 C 485.75 428.58 485.35 430.77 485.64 432.44 C 484.55 433.48 483.50 434.59 482.29 435.50 C 480.74 435.52 479.19 435.49 477.65 435.38 C 477.53 433.52 477.44 431.66 477.31 429.81 Z" />
</g>
<g id="#51ade5ff">
<path fill="#51ade5" opacity="1.00" d=" M 213.02 6.14 C 224.59 4.93 236.30 3.90 247.92 5.18 C 286.79 6.93 325.11 19.75 357.14 41.88 C 370.87 51.18 383.22 62.42 394.46 74.59 C 431.15 114.04 451.29 168.14 450.21 221.93 C 449.43 228.92 450.06 236.00 448.77 242.95 C 447.33 258.71 443.27 274.09 438.38 289.09 C 435.85 295.37 433.98 301.92 430.63 307.83 C 425.00 321.10 417.19 333.27 408.94 345.04 C 406.67 343.40 404.61 341.50 402.79 339.39 C 395.36 331.11 386.92 323.82 379.38 315.66 C 372.49 309.20 366.26 302.08 359.33 295.66 C 357.54 294.60 358.72 292.68 359.55 291.43 C 367.44 279.12 372.46 265.20 375.91 251.05 C 386.98 205.03 373.18 153.85 340.08 119.94 C 318.08 96.40 287.68 80.97 255.72 77.03 C 230.06 73.15 203.58 77.65 179.78 87.63 C 140.33 105.04 109.38 141.01 99.19 183.03 C 88.69 222.79 96.69 266.97 120.44 300.53 C 134.83 321.06 154.65 337.88 177.50 348.26 C 202.48 359.70 230.79 364.09 258.02 359.96 C 276.35 357.18 294.07 350.65 310.10 341.38 C 318.84 349.49 326.93 358.25 335.45 366.58 C 344.08 375.05 352.52 383.70 361.08 392.25 C 330.27 414.85 293.04 428.06 255.10 431.60 C 244.06 431.75 232.99 433.25 221.97 431.78 C 192.00 429.68 162.57 420.98 136.06 406.91 C 124.79 400.62 114.04 393.42 103.86 385.49 C 89.27 373.09 75.55 359.49 64.41 343.86 C 42.52 313.85 28.82 277.96 25.15 240.99 C 22.26 210.80 25.06 179.89 34.76 151.08 C 44.19 122.33 59.95 95.69 80.60 73.56 C 87.29 65.81 95.35 59.45 102.72 52.39 C 119.40 39.22 137.75 28.04 157.50 20.11 C 175.28 13.01 194.02 8.40 213.02 6.14 Z" />
</g>
<g id="#9fcfedff">
<path fill="#9fcfed" opacity="1.00" d=" M 251.82 204.79 C 256.14 205.63 260.45 207.21 263.87 210.04 C 326.77 270.38 389.21 331.23 452.12 391.57 C 460.32 388.37 469.56 388.84 478.02 390.77 C 489.91 393.17 499.73 401.83 505.82 412.05 C 508.74 418.31 511.03 425.05 511.36 432.00 C 510.80 435.97 510.67 439.97 510.24 443.95 C 505.72 467.05 486.30 486.66 463.02 490.71 C 452.39 492.95 441.23 491.07 431.57 486.28 C 425.63 482.02 420.20 476.97 415.81 471.12 C 409.40 461.25 408.20 448.85 410.12 437.45 C 410.28 435.80 411.11 433.70 409.47 432.53 C 348.06 373.28 286.70 313.96 225.28 254.72 C 220.04 250.05 216.94 243.05 217.40 236.00 C 217.08 228.61 220.68 221.82 225.09 216.15 C 231.60 208.50 241.83 204.28 251.82 204.79 M 228.36 226.32 C 226.16 230.78 225.85 235.98 226.76 240.81 C 228.16 246.51 233.27 249.91 237.13 253.89 C 248.48 264.53 259.52 275.51 270.72 286.32 C 282.33 297.06 293.32 308.45 304.92 319.21 C 342.92 356.14 381.20 392.78 419.22 429.70 C 420.65 430.66 420.46 432.40 420.03 433.86 C 417.22 443.17 417.71 453.60 421.97 462.42 C 426.31 472.66 436.46 479.38 446.99 481.97 C 457.30 483.73 468.13 481.54 477.22 476.42 C 484.60 472.77 490.04 466.36 494.82 459.84 C 499.08 452.92 501.55 445.00 502.24 436.91 C 502.18 428.41 500.13 419.69 494.88 412.85 C 487.60 402.03 473.68 397.24 461.05 398.64 C 457.00 399.07 453.15 400.83 449.04 400.65 C 442.31 394.81 436.27 388.16 429.78 382.03 C 429.07 381.22 427.63 380.97 426.86 381.80 C 424.84 383.44 423.02 385.30 421.06 387.01 C 421.36 387.32 421.97 387.95 422.28 388.26 C 419.28 387.96 417.95 391.20 415.71 392.55 C 414.39 391.59 412.80 390.59 412.33 388.96 C 413.57 387.08 415.25 385.56 416.87 384.02 L 416.31 382.67 L 417.32 383.69 C 419.21 381.74 421.01 379.71 422.68 377.57 C 422.69 377.01 422.71 375.91 422.72 375.36 C 419.73 372.65 416.87 369.82 414.04 366.95 C 413.26 366.41 412.55 365.07 411.45 365.49 C 408.98 367.29 406.87 369.54 404.90 371.86 C 403.29 373.52 401.80 375.45 399.73 376.54 C 397.98 376.69 396.22 374.73 396.28 373.02 C 397.55 371.03 399.12 369.26 400.52 367.37 L 401.04 367.85 C 403.22 365.43 405.37 362.98 407.14 360.23 C 403.21 356.67 399.73 352.58 395.52 349.35 C 392.63 348.59 390.98 351.93 388.73 353.14 C 386.11 354.23 383.87 355.98 381.79 357.87 C 381.02 356.95 378.66 355.74 380.37 354.44 C 381.38 353.12 382.51 351.92 383.62 350.69 C 385.75 348.48 387.85 346.24 389.92 343.99 C 386.27 340.36 382.89 336.32 378.72 333.31 C 375.41 333.00 373.80 337.10 371.53 338.91 L 371.31 338.62 C 370.05 340.27 368.90 342.07 367.26 343.37 C 365.05 344.49 363.55 341.99 362.07 340.79 C 363.60 338.85 365.19 336.95 366.88 335.14 C 368.73 333.24 370.76 331.48 372.38 329.38 C 373.67 327.74 371.86 326.18 370.77 325.11 C 367.33 321.93 363.98 318.66 360.54 315.50 C 358.52 317.62 356.45 319.70 354.32 321.72 C 352.55 323.52 350.74 325.28 348.88 326.99 C 347.67 325.74 346.45 324.50 345.23 323.28 C 346.73 321.63 348.21 319.98 349.71 318.34 C 351.85 316.15 353.96 313.94 356.11 311.76 C 352.83 307.19 348.37 303.61 344.22 299.87 C 341.94 302.03 339.73 304.27 337.61 306.59 L 337.46 306.43 C 336.18 307.82 334.94 309.27 333.54 310.56 C 331.88 313.02 329.10 309.83 328.58 308.07 C 329.57 305.81 331.94 304.29 333.58 302.42 C 335.82 300.16 337.96 297.79 339.90 295.26 C 335.38 291.50 331.55 286.98 327.00 283.29 C 324.55 285.07 322.65 287.48 320.44 289.53 C 318.83 291.21 317.34 293.02 315.52 294.49 C 313.88 294.97 312.49 293.72 311.64 292.48 C 310.85 289.30 314.62 287.69 316.32 285.59 C 318.11 283.65 320.17 281.90 321.60 279.65 C 322.32 278.47 321.16 277.34 320.43 276.53 C 316.95 273.04 313.35 269.67 309.87 266.18 C 307.44 268.39 305.12 270.71 302.88 273.11 C 301.11 274.91 299.34 276.70 297.60 278.52 C 296.19 277.25 294.79 275.98 293.40 274.71 C 295.08 272.85 296.75 270.96 298.46 269.11 C 301.08 267.02 303.58 264.61 304.92 261.47 C 301.79 258.80 298.91 255.86 295.99 252.98 C 295.10 252.21 294.24 251.19 293.00 251.09 C 290.45 252.78 288.59 255.26 286.49 257.42 C 284.77 259.15 282.94 260.75 281.05 262.28 C 279.91 261.07 277.84 260.09 278.25 258.11 C 279.12 256.21 280.69 254.76 282.02 253.19 C 284.44 250.94 286.72 248.54 288.87 246.04 C 279.68 237.25 270.40 228.55 261.44 219.51 C 257.77 215.57 252.22 214.05 247.01 213.68 C 239.19 214.48 232.15 219.51 228.36 226.32 Z" />
</g>
<g id="#dededfff">
<path fill="#dededf" opacity="1.00" d=" M 235.00 231.19 C 236.38 226.67 240.63 223.79 245.04 222.70 C 248.59 222.41 252.02 224.06 254.46 226.57 C 263.60 235.49 272.90 244.24 282.02 253.19 C 280.69 254.76 279.12 256.21 278.25 258.11 C 277.84 260.09 279.91 261.07 281.05 262.28 C 282.94 260.75 284.77 259.15 286.49 257.42 C 290.33 261.47 294.52 265.16 298.46 269.11 C 296.75 270.96 295.08 272.85 293.40 274.71 C 294.79 275.98 296.19 277.25 297.60 278.52 C 299.34 276.70 301.11 274.91 302.88 273.11 C 307.27 277.37 311.27 282.08 316.32 285.59 C 314.62 287.69 310.85 289.30 311.64 292.48 C 312.49 293.72 313.88 294.97 315.52 294.49 C 317.34 293.02 318.83 291.21 320.44 289.53 C 324.17 294.44 328.89 298.45 333.58 302.42 C 331.94 304.29 329.57 305.81 328.58 308.07 C 329.10 309.83 331.88 313.02 333.54 310.56 C 334.94 309.27 336.18 307.82 337.46 306.43 L 337.61 306.59 C 341.43 310.72 345.40 314.71 349.71 318.34 C 348.21 319.98 346.73 321.63 345.23 323.28 C 346.45 324.50 347.67 325.74 348.88 326.99 C 350.74 325.28 352.55 323.52 354.32 321.72 C 357.46 327.09 362.66 330.70 366.88 335.14 C 365.19 336.95 363.60 338.85 362.07 340.79 C 363.55 341.99 365.05 344.49 367.26 343.37 C 368.90 342.07 370.05 340.27 371.31 338.62 L 371.53 338.91 C 374.78 343.57 379.24 347.16 383.62 350.69 C 382.51 351.92 381.38 353.12 380.37 354.44 C 378.66 355.74 381.02 356.95 381.79 357.87 C 383.87 355.98 386.11 354.23 388.73 353.14 C 388.70 353.51 388.64 354.26 388.60 354.63 C 389.77 356.12 390.92 357.62 392.14 359.08 C 390.54 357.74 388.85 356.51 387.18 355.29 C 385.24 357.41 383.17 359.65 380.13 359.98 C 377.13 362.88 373.99 365.70 371.38 368.98 C 371.24 372.24 375.11 373.75 376.96 376.02 C 391.64 390.68 406.96 404.67 421.61 419.37 C 424.82 422.63 428.15 425.78 431.72 428.64 C 430.60 433.37 428.38 437.88 428.40 442.83 C 428.06 447.81 429.47 452.63 430.80 457.37 C 430.08 456.31 429.32 455.30 428.70 454.20 C 425.72 445.93 428.19 437.21 429.96 428.98 C 411.01 410.98 392.44 392.57 373.39 374.67 C 370.53 372.13 368.60 368.77 365.92 366.07 C 343.93 346.42 324.63 323.92 302.19 304.74 C 291.67 295.59 282.71 284.81 272.06 275.81 C 260.41 264.83 249.34 253.24 237.96 241.98 C 235.17 239.24 233.22 235.00 235.00 231.19 Z" />
<path fill="#dededf" opacity="1.00" d=" M 480.65 439.77 C 481.63 439.16 482.67 438.65 483.69 438.11 C 484.38 439.00 485.07 439.89 485.76 440.79 C 485.38 441.44 484.64 442.72 484.26 443.36 C 483.01 443.78 481.77 444.21 480.52 444.63 C 480.50 443.02 479.95 441.30 480.65 439.77 Z" />
</g>
<g id="#dd5966ff">
<path fill="#dd5966" opacity="1.00" d=" M 380.13 359.98 C 383.17 359.65 385.24 357.41 387.18 355.29 C 388.85 356.51 390.54 357.74 392.14 359.08 C 394.81 361.97 397.61 364.73 400.52 367.37 C 399.12 369.26 397.55 371.03 396.28 373.02 C 396.22 374.73 397.98 376.69 399.73 376.54 C 401.80 375.45 403.29 373.52 404.90 371.86 C 408.59 375.58 412.61 378.95 416.31 382.67 L 416.87 384.02 C 415.25 385.56 413.57 387.08 412.33 388.96 C 412.80 390.59 414.39 391.59 415.71 392.55 C 417.95 391.20 419.28 387.96 422.28 388.26 C 427.53 393.80 433.07 399.06 438.50 404.44 C 441.25 407.03 443.89 409.85 447.22 411.71 C 450.66 411.82 453.69 409.84 457.00 409.18 C 463.16 407.87 469.82 407.95 475.64 410.57 C 484.91 413.98 490.93 423.39 492.06 432.95 C 494.39 454.18 474.36 474.79 452.97 472.47 C 443.44 471.85 435.41 465.45 430.80 457.37 C 429.47 452.63 428.06 447.81 428.40 442.83 C 428.38 437.88 430.60 433.37 431.72 428.64 C 428.15 425.78 424.82 422.63 421.61 419.37 C 406.96 404.67 391.64 390.68 376.96 376.02 C 375.11 373.75 371.24 372.24 371.38 368.98 C 373.99 365.70 377.13 362.88 380.13 359.98 M 477.31 429.81 C 477.44 431.66 477.53 433.52 477.65 435.38 C 479.19 435.49 480.74 435.52 482.29 435.50 C 483.50 434.59 484.55 433.48 485.64 432.44 C 485.35 430.77 485.75 428.58 483.91 427.68 C 482.55 427.51 481.19 427.38 479.84 427.32 C 478.99 428.15 478.15 428.98 477.31 429.81 M 480.65 439.77 C 479.95 441.30 480.50 443.02 480.52 444.63 C 481.77 444.21 483.01 443.78 484.26 443.36 C 484.64 442.72 485.38 441.44 485.76 440.79 C 485.07 439.89 484.38 439.00 483.69 438.11 C 482.67 438.65 481.63 439.16 480.65 439.77 Z" />
</g>
</svg>
